<svg width="50" height="18" viewBox="0 0 50 18" fill="none" xmlns="http://www.w3.org/2000/svg">
<path d="M0.818781 15.0765L3.81878 12.3405C4.42678 11.7965 4.88278 11.3965 5.18678 11.1405C6.09878 10.3405 6.79478 9.7005 7.27478 9.2205C7.75478 8.7245 8.14678 8.2125 8.45078 7.6845C8.75478 7.1565 8.90678 6.6125 8.90678 6.0525C8.90678 5.2685 8.67478 4.6525 8.21078 4.2045C7.76278 3.7565 7.05878 3.5325 6.09878 3.5325C5.29878 3.5325 4.49878 3.6765 3.69878 3.9645C2.89878 4.2365 2.16278 4.6285 1.49078 5.1405V1.6605C2.19478 1.1645 2.99478 0.788497 3.89078 0.532497C4.80278 0.260497 5.78678 0.124497 6.84278 0.124497C8.05878 0.124497 9.10678 0.348497 9.98678 0.796497C10.8668 1.2445 11.5388 1.8765 12.0028 2.6925C12.4668 3.5085 12.6988 4.4445 12.6988 5.5005C12.6988 6.6845 12.3948 7.7405 11.7868 8.6685C11.1948 9.5805 10.2268 10.6605 8.88278 11.9085L6.31478 14.2605H13.2748V17.2605H0.818781V15.0765ZM15.291 0.484497H18.891L24.051 11.7165L29.235 0.484497H32.811V17.2605H29.331V7.7325L24.891 17.2605H23.211L18.795 7.7325V17.2605H15.291V0.484497ZM35.33 0.484497H43.562C45.146 0.484497 46.386 0.876497 47.282 1.6605C48.178 2.4445 48.626 3.5805 48.626 5.0685C48.626 5.8205 48.45 6.5085 48.098 7.1325C47.746 7.7405 47.266 8.2125 46.658 8.5485C47.49 8.8525 48.114 9.3165 48.53 9.9405C48.946 10.5485 49.154 11.3485 49.154 12.3405C49.154 13.3485 48.922 14.2285 48.458 14.9805C48.01 15.7165 47.386 16.2845 46.586 16.6845C45.802 17.0685 44.93 17.2605 43.97 17.2605H35.33V0.484497ZM42.866 7.3005C43.506 7.3005 44.01 7.1405 44.378 6.8205C44.746 6.5005 44.93 5.9885 44.93 5.2845C44.93 4.5165 44.746 3.9885 44.378 3.7005C44.026 3.4125 43.482 3.2685 42.746 3.2685H38.978V7.3005H42.866ZM43.082 14.4765C43.866 14.4765 44.458 14.3245 44.858 14.0205C45.274 13.7005 45.482 13.1485 45.482 12.3645C45.482 11.5645 45.266 10.9885 44.834 10.6365C44.418 10.2845 43.794 10.1085 42.962 10.1085H38.978V14.4765H43.082Z" fill="#888E8C"/>
</svg>
