<svg width="48" height="48" viewBox="0 0 48 48" fill="none" xmlns="http://www.w3.org/2000/svg">
<path d="M20.58 7.71998L3.64004 36C3.29078 36.6048 3.10598 37.2906 3.10402 37.989C3.10206 38.6875 3.28302 39.3742 3.62889 39.981C3.97477 40.5878 4.47349 41.0935 5.07546 41.4477C5.67742 41.8019 6.36164 41.9923 7.06004 42H40.94C41.6384 41.9923 42.3227 41.8019 42.9246 41.4477C43.5266 41.0935 44.0253 40.5878 44.3712 39.981C44.7171 39.3742 44.898 38.6875 44.8961 37.989C44.8941 37.2906 44.7093 36.6048 44.36 36L27.42 7.71998C27.0635 7.1322 26.5615 6.64622 25.9624 6.30895C25.3634 5.97168 24.6875 5.79449 24 5.79449C23.3126 5.79449 22.6367 5.97168 22.0377 6.30895C21.4386 6.64622 20.9366 7.1322 20.58 7.71998V7.71998Z" stroke="#F2C94C" stroke-width="4" stroke-linecap="round" stroke-linejoin="round"/>
<path d="M24 18V26" stroke="#F2C94C" stroke-width="4" stroke-linecap="round" stroke-linejoin="round"/>
<path d="M24 34H24.02" stroke="#F2C94C" stroke-width="4" stroke-linecap="round" stroke-linejoin="round"/>
</svg>
