<svg width="32" height="33" viewBox="0 0 32 33" fill="none" xmlns="http://www.w3.org/2000/svg">
<path d="M17.8677 20.3015H17.1968C16.8488 20.3015 16.5659 20.0196 16.5659 19.6707C16.5659 19.5407 16.6179 19.4177 16.7109 19.3277C17.1008 18.9468 17.4307 18.4369 17.6667 17.886C17.7157 17.922 17.7667 17.948 17.8257 17.948C18.2026 17.948 18.6445 17.1141 18.6445 16.5472C18.6445 15.9793 18.5935 15.5194 18.2166 15.5194C18.1706 15.5194 18.1236 15.5264 18.0756 15.5404C18.0486 14.0017 17.6597 12.0801 15.3091 12.0801C12.8566 12.0801 12.5706 13.9967 12.5427 15.5344C12.5087 15.5274 12.4737 15.5204 12.4417 15.5204C12.0647 15.5204 12.0128 15.9803 12.0128 16.5482C12.0128 17.1151 12.4557 17.949 12.8326 17.949C12.8796 17.949 12.9226 17.935 12.9626 17.912C13.1995 18.4529 13.5235 18.9548 13.9084 19.3297C14.0014 19.4197 14.0534 19.5437 14.0534 19.6727C14.0534 20.0216 13.7714 20.3035 13.4225 20.3035H12.7516C11.3159 20.3035 10.1521 21.4673 10.1521 22.904V23.6249C10.1521 24.0778 10.52 24.4448 10.9729 24.4448H19.6473C20.1002 24.4448 20.4672 24.0778 20.4672 23.6249V22.904C20.4672 21.4653 19.3034 20.3015 17.8677 20.3015Z" fill="#888E8C"/>
<path d="M19.1653 15.3505H25.6491C25.9861 15.3505 26.258 15.0786 26.258 14.7426V13.7778C26.259 13.4419 25.9861 13.1699 25.6491 13.1699L18.9181 13.1699C18.9803 13.3277 19.0361 13.4942 19.0852 13.6699M19.1653 15.3505L19.6106 15.1231C19.5647 15.0332 19.5104 14.9402 19.4449 14.8505M19.1653 15.3505V14.8805L18.7994 14.9136M19.1653 15.3505C19.0704 15.1646 18.9544 15.0096 18.7994 14.9136M19.4449 14.8505H25.6491C25.7105 14.8505 25.758 14.8019 25.758 14.7426V13.7778V13.7763C25.7582 13.7196 25.7118 13.6699 25.6491 13.6699H19.0852M19.4449 14.8505H19.2957C19.2896 14.7842 19.2827 14.7188 19.2751 14.6544M19.4449 14.8505C19.3952 14.7823 19.3389 14.716 19.2751 14.6544M19.0852 13.6699H18.564C18.6756 14.0299 18.7567 14.4416 18.7994 14.9136M19.0852 13.6699C19.169 13.9703 19.233 14.2977 19.2751 14.6544M19.2751 14.6544C19.2121 14.5937 19.1417 14.5375 19.0627 14.4885L18.7994 14.9136" fill="#888E8C" stroke="#888E8C"/>
<path d="M25.6492 17.1455H19.3144C19.1425 17.7944 18.7185 18.4743 18.1326 18.6572C18.1147 18.6882 18.0937 18.7172 18.0767 18.7492V19.3271H25.6482C25.9852 19.3271 26.2571 19.0551 26.2571 18.7192V17.7544C26.2591 17.4175 25.9862 17.1455 25.6492 17.1455Z" fill="#888E8C"/>
<path d="M25.6492 21.1187H20.7041C21.03 21.6366 21.223 22.2464 21.223 22.9013V23.3002H25.6502C25.9871 23.3002 26.2591 23.0283 26.2591 22.6924V21.7275C26.2591 21.3916 25.9861 21.1187 25.6492 21.1187Z" fill="#888E8C"/>
<path d="M28.2647 7.10547H8.1445C6.08089 7.10547 4.4082 8.77816 4.4082 10.8418V25.68C4.4082 27.7426 6.08089 29.4163 8.1445 29.4163H28.2647C30.3273 29.4163 32 27.7426 32 25.68V10.8418C32.001 8.77816 30.3273 7.10547 28.2647 7.10547ZM30.2364 25.68C30.2364 26.7688 29.3515 27.6536 28.2637 27.6536H8.1445C7.05671 27.6536 6.17187 26.7688 6.17187 25.68V10.8418C6.17187 9.75397 7.05671 8.86914 8.1445 8.86914H28.2647C29.3525 8.86914 30.2374 9.75397 30.2374 10.8418V25.68H30.2364Z" fill="#888E8C"/>
<path d="M3.7363 4.86965H16.8458H23.2186H23.8555C24.6774 4.86965 25.3822 5.37555 25.6772 6.09042H27.5168C27.1679 4.38674 25.6622 3.10498 23.8555 3.10498H22.3628H17.3767H3.7363C1.67269 3.10498 0 4.77767 0 6.84128V21.6795C0 23.6251 1.49272 25.2058 3.39336 25.3818V23.6161C2.46954 23.4532 1.76467 22.6493 1.76467 21.6785V6.84128C1.76467 5.75448 2.6495 4.86965 3.7363 4.86965Z" fill="#888E8C"/>
</svg>
