<svg width="32" height="19" viewBox="0 0 32 19" fill="none" xmlns="http://www.w3.org/2000/svg">
<path d="M31.3626 0.081543H0.637438C0.285375 0.081543 0 0.366981 0 0.719043V2.79073C0 3.14279 0.285375 3.42817 0.637438 3.42817H2.52531L3.4435 17.8432C3.46487 18.1789 3.74338 18.4402 4.07969 18.4402H5.67331C6.02538 18.4402 6.31075 18.1548 6.31075 17.8027V3.42817H25.6255V17.8027C25.6255 18.1547 25.9109 18.4401 26.2629 18.4401H27.8566C28.1929 18.4401 28.4714 18.1788 28.4928 17.8432L29.4109 3.42811H31.3626C31.7146 3.42811 32 3.14273 32 2.79067V0.718981C32 0.366981 31.7146 0.081543 31.3626 0.081543ZM5.03587 17.1652H4.67781L3.80281 3.42817H5.03581V17.1652H5.03587ZM27.2584 17.1652H26.9004V3.42817H28.1334L27.2584 17.1652ZM30.7251 2.15329H1.27488V1.35648H30.7251V2.15329H30.7251Z" fill="#888E8C"/>
</svg>
