<svg width="32" height="14" viewBox="0 0 32 14" fill="none" xmlns="http://www.w3.org/2000/svg">
<path d="M31.0625 2.50496H28.8462C27.671 1.39134 26.0849 0.707275 24.342 0.707275C22.291 0.707275 20.4573 1.65465 19.2547 3.13453C17.3574 1.63165 14.6458 1.62909 12.7451 3.13453C11.5426 1.65465 9.70894 0.707275 7.65788 0.707275C5.91494 0.707275 4.32888 1.3914 3.15369 2.50496H0.9375C0.41975 2.50496 0 2.92471 0 3.44246C0 3.96021 0.41975 4.37996 0.9375 4.37996H1.77275C1.34525 5.2499 1.10462 6.22759 1.10462 7.26059C1.10462 10.8741 4.04444 13.8139 7.65794 13.8139C11.2714 13.8139 14.2113 10.8741 14.2113 7.26059C14.2113 6.37865 14.0357 5.53702 13.7184 4.76827C15.0041 3.58678 16.9941 3.58515 18.2816 4.76827C17.9643 5.53702 17.7888 6.37865 17.7888 7.26059C17.7888 10.8741 20.7286 13.8139 24.3421 13.8139C27.9556 13.8139 30.8954 10.8741 30.8954 7.26059C30.8954 6.22759 30.6549 5.2499 30.2273 4.37996H31.0625C31.5802 4.37996 32 3.96021 32 3.44246C32 2.92471 31.5802 2.50496 31.0625 2.50496ZM7.65794 11.9389C5.07831 11.9389 2.97962 9.84021 2.97962 7.26059C2.97962 4.68096 5.07831 2.58228 7.65794 2.58228C10.2376 2.58228 12.3363 4.68096 12.3363 7.26059C12.3363 9.84021 10.2376 11.9389 7.65794 11.9389ZM24.3421 11.9389C21.7624 11.9389 19.6637 9.84021 19.6637 7.26059C19.6637 4.68096 21.7624 2.58228 24.3421 2.58228C26.9217 2.58228 29.0204 4.68096 29.0204 7.26059C29.0204 9.84021 26.9217 11.9389 24.3421 11.9389Z" fill="#888E8C"/>
</svg>
