<svg width="32" height="24" viewBox="0 0 32 24" fill="none" xmlns="http://www.w3.org/2000/svg">
<path d="M21.9092 3.88752C21.9638 3.68271 21.9932 3.46783 21.9932 3.24615C21.9932 1.87083 20.8734 0.751953 19.4971 0.751953C18.1208 0.751953 17.001 1.87083 17.001 3.24615C17.001 3.46783 17.0305 3.68271 17.085 3.88752C11.3412 5.01334 6.99414 10.0793 6.99414 16.141C6.99414 16.1784 6.99583 16.2164 6.99614 16.2539L0 19.0864L0.506376 20.0969C1.37432 21.8288 2.95301 23.0066 5.0717 23.5026C5.83795 23.6821 6.6662 23.7689 7.5382 23.7689C11.3389 23.7689 15.9637 22.1167 19.8425 19.2767C26.4206 19.2347 31.0072 18.0066 31.2024 17.9534L31.9178 17.7587L31.9693 17.0192C31.9897 16.7267 32 16.4312 32 16.141C32.0001 10.0793 27.653 5.01334 21.9092 3.88752ZM11.8768 20.9861C9.50983 21.7 7.26195 21.872 5.54751 21.4706C4.4847 21.2217 3.64213 20.7661 3.03007 20.1111L8.14045 18.042C9.11877 18.2797 12.053 18.9214 16.1365 19.1738C14.7611 19.9356 13.3233 20.5497 11.8768 20.9861ZM18.4536 17.1798C13.9912 17.0884 10.5303 16.4361 9.08108 16.1159C9.09389 10.7439 13.2065 6.31596 18.4536 5.79234V17.1798ZM19.497 3.65333C19.2714 3.65333 19.0879 3.47065 19.0879 3.24608C19.0879 3.02152 19.2714 2.83883 19.497 2.83883C19.7227 2.83883 19.9062 3.02152 19.9062 3.24608C19.9062 3.47065 19.7227 3.65333 19.497 3.65333ZM20.5405 17.1799V5.79234C25.788 6.3159 29.9008 10.744 29.9131 16.1165C28.4666 16.437 25.0138 17.0888 20.5405 17.1799Z" fill="#888E8C"/>
</svg>
