<svg width="32" height="33" viewBox="0 0 32 33" fill="none" xmlns="http://www.w3.org/2000/svg">
<path d="M15.6042 4.2605C15.0865 4.2605 14.6667 4.68025 14.6667 5.198C14.6667 5.71575 15.0865 6.1355 15.6042 6.1355C18.7064 6.1355 21.2302 8.65887 21.2302 11.7605C21.2302 12.2782 21.6499 12.698 22.1677 12.698C22.6854 12.698 23.1052 12.2782 23.1052 11.7605C23.1052 7.625 19.7403 4.2605 15.6042 4.2605Z" fill="#888E8C"/>
<path d="M5.82748 9.63967L5.92515 9.66037L5.82748 9.63967C5.12153 12.9692 5.99151 16.3139 8.21551 18.8141C9.27632 20.0066 9.88424 21.5806 9.88424 23.135V24.8539C9.88424 26.0209 10.6346 27.015 11.6775 27.3812C12.0486 29.4055 13.8164 31.027 16.0001 31.027C18.1833 31.027 19.9515 29.406 20.3227 27.3812C21.3657 27.015 22.116 26.0209 22.116 24.8538V23.135C22.116 21.5785 22.7253 20.0231 23.8353 18.7567C25.4976 16.8603 26.413 14.4271 26.413 11.9054C26.413 5.33543 20.3991 0.339986 13.7644 1.72608L13.7848 1.82393L13.7644 1.72608C9.84292 2.5455 6.66415 5.69381 5.82748 9.63967ZM14.1569 3.60441L14.1366 3.50714L14.1569 3.60441C19.5964 2.46768 24.4942 6.5518 24.4942 11.9054C24.4942 13.9616 23.7478 15.9456 22.3924 17.492C21.2019 18.8502 20.4604 20.4844 20.2553 22.1756H11.7451C11.5404 20.4838 10.8018 18.8345 9.64931 17.5388L9.57459 17.6053L9.64931 17.5388C7.83537 15.4996 7.12599 12.7663 7.7046 10.0377C8.37926 6.85574 10.973 4.26967 14.1569 3.60441ZM16.0001 29.1082C14.9901 29.1082 14.0938 28.4437 13.7142 27.5264H18.2859C17.9064 28.4437 17.0101 29.1082 16.0001 29.1082ZM20.1972 24.8539C20.1972 25.2725 19.8564 25.6133 19.4377 25.6133H12.5625C12.1438 25.6133 11.8031 25.2725 11.8031 24.8539V24.0944H20.1972V24.8539Z" fill="#888E8C" stroke="#888E8C" stroke-width="0.2"/>
<path d="M2.8125 11.5098H0.9375C0.41975 11.5098 0 11.9295 0 12.4473C0 12.965 0.41975 13.3848 0.9375 13.3848H2.8125C3.33025 13.3848 3.75 12.965 3.75 12.4473C3.75 11.9295 3.33025 11.5098 2.8125 11.5098Z" fill="#888E8C"/>
<path d="M3.20088 6.82233L1.87506 5.49652C1.509 5.13039 0.915377 5.13039 0.549252 5.49652C0.183127 5.86264 0.183127 6.4562 0.549252 6.82233L1.87506 8.14814C2.24113 8.51427 2.83475 8.51433 3.20088 8.14814C3.567 7.78202 3.567 7.18845 3.20088 6.82233Z" fill="#888E8C"/>
<path d="M3.20088 16.7465C2.83475 16.3804 2.24113 16.3804 1.87506 16.7465L0.549252 18.0723C0.183127 18.4384 0.183127 19.032 0.549252 19.3981C0.915314 19.7643 1.50894 19.7643 1.87506 19.3981L3.20088 18.0723C3.567 17.7062 3.567 17.1126 3.20088 16.7465Z" fill="#888E8C"/>
<path d="M31.0625 11.5098H29.1875C28.6697 11.5098 28.25 11.9295 28.25 12.4473C28.25 12.965 28.6697 13.3848 29.1875 13.3848H31.0625C31.5803 13.3848 32 12.965 32 12.4473C32 11.9295 31.5803 11.5098 31.0625 11.5098Z" fill="#888E8C"/>
<path d="M31.4509 5.49652C31.0848 5.13039 30.4912 5.13039 30.1251 5.49652L28.7993 6.82233C28.4331 7.18845 28.4331 7.78201 28.7993 8.14814C29.1653 8.5142 29.7589 8.51426 30.1251 8.14814L31.4509 6.82233C31.817 6.4562 31.817 5.86264 31.4509 5.49652Z" fill="#888E8C"/>
<path d="M31.4509 18.0723L30.1251 16.7465C29.759 16.3804 29.1654 16.3804 28.7993 16.7465C28.4331 17.1126 28.4331 17.7062 28.7993 18.0723L30.1251 19.3981C30.4911 19.7642 31.0848 19.7643 31.4509 19.3981C31.817 19.032 31.817 18.4385 31.4509 18.0723Z" fill="#888E8C"/>
</svg>
