<svg width="40" height="28" viewBox="0 0 40 28" fill="none" xmlns="http://www.w3.org/2000/svg">
<path d="M39.1998 3.2V27.2H3.1998V22.4H0.799805V0.800003H34.3998V3.2H39.1998ZM29.5998 3.2C29.5998 3.5375 29.6623 3.85 29.7873 4.1375C29.9123 4.425 30.0811 4.675 30.2936 4.8875C30.5061 5.1 30.7623 5.275 31.0623 5.4125C31.3623 5.55 31.6748 5.6125 31.9998 5.6V3.2H29.5998ZM3.1998 5.6C3.5373 5.6 3.8498 5.5375 4.1373 5.4125C4.4248 5.2875 4.6748 5.11875 4.8873 4.90625C5.0998 4.69375 5.2748 4.4375 5.4123 4.1375C5.5498 3.8375 5.6123 3.525 5.5998 3.2H3.1998V5.6ZM3.1998 15.2C3.8623 15.2 4.48105 15.325 5.05605 15.575C5.63105 15.825 6.14355 16.1688 6.59355 16.6063C7.04355 17.0438 7.3873 17.55 7.6248 18.125C7.8623 18.7 7.9873 19.325 7.9998 20H27.1998C27.1998 19.3375 27.3248 18.7188 27.5748 18.1438C27.8248 17.5688 28.1686 17.0563 28.6061 16.6063C29.0436 16.1563 29.5498 15.8125 30.1248 15.575C30.6998 15.3375 31.3248 15.2125 31.9998 15.2V8C31.3373 8 30.7186 7.875 30.1436 7.625C29.5686 7.375 29.0561 7.03125 28.6061 6.59375C28.1561 6.15625 27.8123 5.65 27.5748 5.075C27.3373 4.5 27.2123 3.875 27.1998 3.2H7.9998C7.9998 3.8625 7.8748 4.48125 7.6248 5.05625C7.3748 5.63125 7.03105 6.14375 6.59355 6.59375C6.15605 7.04375 5.6498 7.3875 5.0748 7.625C4.4998 7.8625 3.8748 7.9875 3.1998 8V15.2ZM31.9998 17.6C31.6623 17.6 31.3498 17.6625 31.0623 17.7875C30.7748 17.9125 30.5248 18.0813 30.3123 18.2938C30.0998 18.5063 29.9248 18.7625 29.7873 19.0625C29.6498 19.3625 29.5873 19.675 29.5998 20H31.9998V17.6ZM3.1998 20H5.5998C5.5998 19.6625 5.5373 19.35 5.4123 19.0625C5.2873 18.775 5.11855 18.525 4.90605 18.3125C4.69355 18.1 4.4373 17.925 4.1373 17.7875C3.8373 17.65 3.5248 17.5875 3.1998 17.6V20ZM36.7998 5.6H34.3998V22.4H5.5998V24.8H36.7998V5.6ZM9.1998 12.8C8.8748 12.8 8.59355 12.6813 8.35605 12.4438C8.11855 12.2063 7.9998 11.925 7.9998 11.6C7.9998 11.275 8.11855 10.9938 8.35605 10.7563C8.59355 10.5188 8.8748 10.4 9.1998 10.4C9.5248 10.4 9.80605 10.5188 10.0436 10.7563C10.2811 10.9938 10.3998 11.275 10.3998 11.6C10.3998 11.925 10.2811 12.2063 10.0436 12.4438C9.80605 12.6813 9.5248 12.8 9.1998 12.8ZM25.9998 12.8C25.6748 12.8 25.3936 12.6813 25.1561 12.4438C24.9186 12.2063 24.7998 11.925 24.7998 11.6C24.7998 11.275 24.9186 10.9938 25.1561 10.7563C25.3936 10.5188 25.6748 10.4 25.9998 10.4C26.3248 10.4 26.6061 10.5188 26.8436 10.7563C27.0811 10.9938 27.1998 11.275 27.1998 11.6C27.1998 11.925 27.0811 12.2063 26.8436 12.4438C26.6061 12.6813 26.3248 12.8 25.9998 12.8ZM17.5998 17.6C16.9373 17.6 16.3186 17.475 15.7436 17.225C15.1686 16.975 14.6561 16.6313 14.2061 16.1938C13.7561 15.7563 13.4123 15.25 13.1748 14.675C12.9373 14.1 12.8123 13.475 12.7998 12.8V10.4C12.7998 9.7375 12.9248 9.11875 13.1748 8.54375C13.4248 7.96875 13.7686 7.45625 14.2061 7.00625C14.6436 6.55625 15.1498 6.2125 15.7248 5.975C16.2998 5.7375 16.9248 5.6125 17.5998 5.6C18.2623 5.6 18.8811 5.725 19.4561 5.975C20.0311 6.225 20.5436 6.56875 20.9936 7.00625C21.4436 7.44375 21.7873 7.95 22.0248 8.525C22.2623 9.1 22.3873 9.725 22.3998 10.4V12.8C22.3998 13.4625 22.2748 14.0813 22.0248 14.6563C21.7748 15.2313 21.4311 15.7438 20.9936 16.1938C20.5561 16.6438 20.0498 16.9875 19.4748 17.225C18.8998 17.4625 18.2748 17.5875 17.5998 17.6ZM15.1998 12.8C15.1998 13.1375 15.2623 13.45 15.3873 13.7375C15.5123 14.025 15.6811 14.275 15.8936 14.4875C16.1061 14.7 16.3623 14.875 16.6623 15.0125C16.9623 15.15 17.2748 15.2125 17.5998 15.2C17.9373 15.2 18.2498 15.1375 18.5373 15.0125C18.8248 14.8875 19.0748 14.7188 19.2873 14.5063C19.4998 14.2938 19.6748 14.0375 19.8123 13.7375C19.9498 13.4375 20.0123 13.125 19.9998 12.8V10.4C19.9998 10.0625 19.9373 9.75 19.8123 9.4625C19.6873 9.175 19.5186 8.925 19.3061 8.7125C19.0936 8.5 18.8373 8.325 18.5373 8.1875C18.2373 8.05 17.9248 7.9875 17.5998 8C17.2623 8 16.9498 8.0625 16.6623 8.1875C16.3748 8.3125 16.1248 8.48125 15.9123 8.69375C15.6998 8.90625 15.5248 9.1625 15.3873 9.4625C15.2498 9.7625 15.1873 10.075 15.1998 10.4V12.8Z" fill="white"/>
</svg>
