<svg width="34" height="43" viewBox="0 0 34 43" fill="none" xmlns="http://www.w3.org/2000/svg">
<path d="M20.1727 11.5782L20.1727 11.5782C20.5129 11.1323 21.2052 11.2337 21.4096 11.7486C22.2777 13.9355 24.1975 14.5259 24.6248 14.6574C24.662 14.6688 24.6879 14.6768 24.7008 14.682C24.7008 14.682 24.7009 14.682 24.7009 14.682L24.6444 14.821L20.1727 11.5782ZM20.1727 11.5782C17.6476 14.8881 13.8436 16.8075 9.79446 16.9695L20.1727 11.5782ZM11.1669 20.1241L11.1669 20.1241C11.5936 23.2214 14.2779 25.5581 17.4103 25.5581C20.8855 25.5581 23.713 22.7305 23.713 19.2551V15.8623C22.4571 15.3837 21.3564 14.5127 20.6024 13.3134C17.8401 16.4361 13.9513 18.239 9.85174 18.4029C9.46284 18.42 9.12245 18.116 9.1064 17.7149C9.1064 17.7149 9.1064 17.7149 9.1064 17.7149L9.25628 17.7089C9.24373 17.3958 9.48737 17.1319 9.80043 17.1194L11.1669 20.1241ZM11.1669 20.1241C11.1129 19.7321 10.7514 19.4565 10.3585 19.5114L11.1669 20.1241ZM21.0111 31.2569L21.0111 31.2569C18.3544 33.4934 14.3355 32.7909 12.5908 29.8128C12.3239 29.8732 12.0518 29.9034 11.7782 29.9034C9.25177 29.9034 7.20763 31.9477 7.20763 34.4741V37.8252C7.20763 38.2213 6.88648 38.5425 6.49036 38.5425C6.09424 38.5425 5.7731 38.2213 5.7731 37.8252V34.4741C5.7731 31.1548 8.45853 28.4688 11.7782 28.4688C13.0063 28.4688 13.9985 27.4792 13.9985 26.2545V26.1996C11.6554 25.0487 10.0898 22.8171 9.74586 20.3199C9.74586 20.3199 9.74586 20.3199 9.74586 20.3199L9.89446 20.2994C9.85163 19.989 10.0686 19.7028 10.379 19.66L21.0111 31.2569ZM21.0111 31.2569C21.3141 31.0018 21.3529 30.5493 21.0979 30.2463C20.8429 29.943 20.3901 29.9045 20.0873 30.1594C18.1552 31.7861 15.2506 31.3251 13.9093 29.2199C14.7078 28.6465 15.2693 27.7612 15.402 26.7262M21.0111 31.2569L15.402 26.7262M15.402 26.7262C16.0517 26.901 16.7262 26.9927 17.4103 26.9927C21.7441 26.9927 25.1475 23.4366 25.1475 19.2982C25.1475 19.261 25.1476 15.4015 25.1472 15.3398C25.1472 15.3397 25.1472 15.3395 25.1472 15.3394L24.9972 15.3411L15.402 26.7262ZM21.1429 27.4026L21.0148 27.4806L21.1429 27.4026C20.9368 27.0643 20.4954 26.9567 20.1571 27.1632C19.819 27.3692 19.7117 27.8105 19.9178 28.1488C20.5867 29.2471 21.7555 29.9034 23.0423 29.9034C25.5686 29.9034 27.6129 31.9475 27.6129 34.4741V37.8252C27.6129 38.2213 27.9341 38.5425 28.3302 38.5425C28.7263 38.5425 29.0475 38.2213 29.0475 37.8252V34.4741C29.0475 31.155 26.3615 28.4687 23.0423 28.4688C22.2592 28.4688 21.5497 28.0706 21.1429 27.4026ZM7.90042 11.9778V14.8852C7.90042 15.2813 8.22156 15.6025 8.61768 15.6025C9.0138 15.6025 9.33495 15.2813 9.33495 14.8852V11.9778C9.33495 8.48289 12.1784 5.63933 15.6731 5.63933H19.2185C22.7132 5.63933 25.5566 8.48289 25.5566 11.9778V17.2933C25.5566 17.6895 25.8777 18.0106 26.2738 18.0106C26.67 18.0106 26.9911 17.6895 26.9911 17.2933V11.9778C26.9911 7.69163 23.5044 4.20474 19.2185 4.20474H15.6731C11.3871 4.20474 7.90042 7.69163 7.90042 11.9778Z" fill="#888E8C" stroke="#888E8C" stroke-width="0.3"/>
<path d="M1 38.3926V42.2605H5.10256" stroke="#888E8C" stroke-linecap="round" stroke-linejoin="round"/>
<path d="M33 38.3926V42.2605H28.8974" stroke="#888E8C" stroke-linecap="round" stroke-linejoin="round"/>
<path d="M33 5.12842L33 1.26049L28.8974 1.26049" stroke="#888E8C" stroke-linecap="round" stroke-linejoin="round"/>
<path d="M1 5.12842L1 1.26049L5.10256 1.26049" stroke="#888E8C" stroke-linecap="round" stroke-linejoin="round"/>
</svg>
