<svg width="24" height="24" viewBox="0 0 24 24" fill="none" xmlns="http://www.w3.org/2000/svg">
<g clip-path="url(#clip0)">
<path d="M15.8656 17.6761L15.8656 17.6761L15.8708 17.6812C16.4609 18.2544 17.1855 18.6363 17.9816 18.7821L14.2011 22.5625L14.2011 22.5625L14.1987 22.5649C12.9829 23.7974 10.9982 23.8009 9.75985 22.5625L6.03886 18.8415C6.94285 18.7391 7.78047 18.3393 8.42437 17.6954L8.42531 17.6945L12.0244 14.0761C12.0245 14.076 12.0245 14.0759 12.0246 14.0758C12.0811 14.0197 12.2094 14.0198 12.2656 14.0761L15.8656 17.6761Z" fill="#111D19" stroke="#111D19"/>
<path d="M8.42437 6.30454L8.4244 6.30451L8.41921 6.29946C7.76316 5.66216 6.94077 5.26129 6.03876 5.15854L9.77921 1.4181L9.77921 1.41811L9.7816 1.41569C10.9974 0.183251 12.9822 0.179768 14.2205 1.4181L18.017 5.2146C17.2105 5.35765 16.4683 5.74064 15.885 6.3239L12.2935 9.91539C12.2552 9.94875 12.2062 9.96616 12.1571 9.96616C12.1061 9.96616 12.0677 9.94787 12.0437 9.9239L8.42437 6.30454Z" fill="#111D19" stroke="#111D19"/>
<path d="M22.5625 9.77945L22.5649 9.78183C23.7987 10.9989 23.7987 12.9819 22.5649 14.199L22.5625 14.2014L19.9796 16.7843C19.9714 16.7841 19.9631 16.7839 19.9548 16.7839H18.6967C18.1858 16.7839 17.6757 16.5817 17.3083 16.2143L13.7107 12.6167C13.3685 12.2655 12.9226 12.059 12.457 11.9955C12.9256 11.9311 13.3768 11.7174 13.7277 11.3665L13.7286 11.3656L17.3048 7.77004C17.6831 7.40945 18.1792 7.19685 18.6967 7.19685H19.9548C19.963 7.19685 19.9713 7.19671 19.9795 7.19644L22.5625 9.77945ZM10.5822 11.3669C10.9303 11.7148 11.377 11.9278 11.8416 11.994C11.3689 12.0558 10.9135 12.2632 10.5625 12.6143L10.5615 12.6152L6.96599 16.2301C6.58774 16.5907 6.09157 16.8033 5.57411 16.8033H4.02572C4.01734 16.8033 4.00907 16.8034 4.0009 16.8036L1.41798 14.2207L1.41799 14.2207L1.41557 14.2183C0.183129 13.0025 0.179646 11.0178 1.41798 9.77944L4.00097 7.19644C4.00921 7.19671 4.01746 7.19685 4.02572 7.19685H5.57411C6.08501 7.19685 6.59508 7.39913 6.96249 7.76654L6.96344 7.76748L10.5818 11.3665C10.582 11.3666 10.5821 11.3668 10.5822 11.3669Z" fill="#111D19" stroke="#111D19"/>
</g>
<defs>
<clipPath id="clip0">
<rect width="24" height="24" fill="white"/>
</clipPath>
</defs>
</svg>
