<svg width="32" height="33" viewBox="0 0 32 33" fill="none" xmlns="http://www.w3.org/2000/svg">
<g clip-path="url(#clip0)">
<path d="M24.5332 14.6346H22.9332V13.6527L24.7876 12.8863C25.8833 12.451 26.4187 11.2098 25.9833 10.1141C25.548 9.01834 24.3068 8.483 23.2111 8.91834L22.9332 9.02874V2.39408C22.9332 1.21587 21.9781 0.260742 20.7999 0.260742H10.6665C9.48833 0.260742 8.5332 1.21587 8.5332 2.39408V13.0442C6.79381 13.1492 5.44177 14.5988 5.458 16.3413C5.53277 17.9743 5.52386 19.61 5.43134 21.2421C5.3732 22.3087 5.3012 23.6389 5.34867 24.2741C5.35903 25.2354 5.69544 26.1646 6.3028 26.9098C6.84894 27.6906 6.75294 27.593 7.19454 28.265C8.08094 29.6133 7.99987 29.8074 7.99987 30.6607C7.99987 31.5444 8.71621 32.2607 9.59987 32.2607H15.9999C16.8835 32.2607 17.5999 31.5444 17.5999 30.6607V29.5679C17.5996 29.3776 17.7014 29.2017 17.8665 29.1071C18.9106 28.5726 19.8278 27.8202 20.5561 26.9007H20.7999C21.7725 26.8973 22.6196 26.2364 22.8596 25.2938C22.8847 25.2938 22.9081 25.3013 22.9332 25.3013H23.4825C24.3142 25.3027 25.0702 24.819 25.4175 24.0633C25.7647 23.3076 25.6392 22.4188 25.0964 21.7887C25.6346 21.4709 26.004 20.9307 26.1048 20.3138C26.2056 19.697 26.0275 19.0672 25.6185 18.5946C26.443 18.1054 26.8387 17.1255 26.5853 16.2009C26.3319 15.2763 25.4919 14.6352 24.5332 14.6346ZM24.5332 15.7013C25.1223 15.7013 25.5999 16.1788 25.5999 16.7679C25.5999 17.357 25.1223 17.8346 24.5332 17.8346H22.9332C22.3441 17.8346 21.8665 17.357 21.8665 16.7679C21.8665 16.1788 22.3441 15.7013 22.9332 15.7013H24.5332ZM23.9999 21.0346H22.9332C22.3441 21.0346 21.8665 20.557 21.8665 19.9679C21.8665 19.3788 22.3441 18.9013 22.9332 18.9013H23.9999C24.589 18.9013 25.0665 19.3788 25.0665 19.9679C25.0665 20.557 24.589 21.0346 23.9999 21.0346ZM23.6041 9.91034C24.1529 9.69399 24.7731 9.96346 24.9895 10.5122C25.2058 11.061 24.9364 11.6812 24.3876 11.8975L22.9332 12.4991V10.1765L23.6041 9.91034ZM13.4591 2.39408C13.2569 2.39485 13.0719 2.28042 12.9823 2.09914L12.5961 1.32741H18.8703L18.4841 2.09914C18.3945 2.28042 18.2095 2.39485 18.0073 2.39408H13.4591ZM17.3439 28.1791C16.8444 28.4624 16.535 28.9916 16.5332 29.5658V30.6607C16.5332 30.9553 16.2944 31.1941 15.9999 31.1941H9.59987C9.30532 31.1941 9.06654 30.9553 9.06654 30.6607V30.1274C9.06654 28.9823 8.32574 28.0853 7.81 27.2474C6.86227 25.7109 6.53 25.7418 6.41214 24.193C6.35027 23.3615 6.53107 20.9498 6.55507 20.0687C6.5684 19.5354 6.54014 17.5813 6.52467 16.3269C6.52055 15.7399 6.74991 15.1753 7.16224 14.7575C7.57457 14.3396 8.13606 14.1028 8.72307 14.0991C9.946 14.0991 10.354 14.8671 11.5881 15.2191C12.3576 15.431 13.1421 15.5842 13.9348 15.6773C14.1976 15.7048 14.3983 15.9245 14.402 16.1887V16.2778C14.3983 16.4639 14.2921 18.0911 11.7353 18.0911C11.7023 18.088 11.6689 18.0915 11.6372 18.1013C11.2292 18.1349 9.3636 17.7551 9.01267 17.0527C8.88012 16.7891 8.55896 16.6829 8.29534 16.8154C8.03171 16.948 7.92545 17.2691 8.058 17.5327C8.17608 17.7585 8.33756 17.9588 8.5332 18.1221V24.7674C8.5332 25.9456 9.48833 26.9007 10.6665 26.9007H19.1284C18.5866 27.3965 17.9875 27.8256 17.3439 28.1791ZM18.0905 9.33701L16.8207 8.79408C17.0559 8.55461 17.2868 8.29968 17.5097 8.02288C17.8186 8.40031 18.0191 8.85451 18.09 9.33701H18.0905ZM13.3439 9.71621C13.4287 7.73541 15.1449 6.73808 16.6575 7.38181C15.8329 8.49577 14.6713 9.31436 13.3449 9.71621H13.3439ZM15.9417 9.57968L18.0868 10.4965C17.6196 13.8303 14.0932 13.9274 13.4308 10.7978C14.3484 10.5839 15.2066 10.1677 15.9428 9.57968H15.9417ZM19.1999 17.7541V20.5274H18.1332V18.3941C18.1332 18.0995 17.8944 17.8607 17.5999 17.8607C17.3053 17.8607 17.0665 18.0995 17.0665 18.3941V20.5274H14.3999C14.3999 17.8831 14.3999 18.4634 14.3951 18.3711C15.0521 17.8344 15.4432 17.0384 15.4665 16.1903C15.4626 15.3559 14.8148 14.6663 13.9823 14.6101C15.08 13.9843 16.4303 14.0006 17.5126 14.6528C18.5949 15.305 19.2402 16.4911 19.1999 17.7541ZM12.2665 20.5274V19.1343C12.6287 19.1073 12.9866 19.0389 13.3332 18.9306V20.5274H12.2665ZM20.7999 25.8341H10.6665C10.0774 25.8341 9.59987 25.3565 9.59987 24.7674V18.7407C10.1141 18.9409 10.6518 19.0747 11.1999 19.1391V20.5274C11.1999 21.1165 11.6774 21.5941 12.2665 21.5941H19.1999C19.789 21.5941 20.2665 21.1165 20.2665 20.5274V17.7541C20.2691 15.9421 19.2399 14.2867 17.6137 13.4874C18.5837 12.6505 19.1555 11.4433 19.1887 10.1626C19.1887 10.1626 19.1887 10.1573 19.1887 10.1546C19.314 8.86453 18.7776 7.59873 17.7636 6.79141C15.4959 5.14821 12.2665 6.66074 12.2665 9.86074C12.2296 11.2388 12.8042 12.5626 13.8361 13.4767C13.3655 13.6978 12.9369 13.999 12.5695 14.3669C12.3444 14.3173 12.1124 14.2602 11.8793 14.1946C11.0175 13.9487 10.5993 13.3866 9.59987 13.1381V2.39408C9.59987 1.80497 10.0774 1.32741 10.6665 1.32741H11.4036L12.0281 2.57648C12.2977 3.11973 12.8526 3.46261 13.4591 3.46074H18.0073C18.6138 3.46261 19.1687 3.11973 19.4383 2.57648L20.0628 1.32741H20.7999C21.389 1.32741 21.8665 1.80497 21.8665 2.39408V14.9311C21.2696 15.2711 20.8754 15.8802 20.8098 16.564C20.7442 17.2478 21.0155 17.9208 21.5369 18.3679C21.0699 18.7689 20.8007 19.3534 20.7998 19.969C20.7989 20.5845 21.0663 21.1699 21.5321 21.5722C21.0168 22.0172 20.7476 22.6833 20.809 23.3614C20.8705 24.0395 21.2551 24.6463 21.842 24.9914C21.7365 25.4827 21.3024 25.8337 20.7999 25.8341ZM23.4825 24.2341H22.9332C22.3441 24.2341 21.8665 23.7565 21.8665 23.1674C21.8665 22.5783 22.3441 22.1007 22.9332 22.1007H23.4825C24.0716 22.1007 24.5492 22.5783 24.5492 23.1674C24.5492 23.7565 24.0716 24.2341 23.4825 24.2341Z" fill="#888E8C"/>
<path d="M18.6666 23.7275H12.7999C12.5054 23.7275 12.2666 23.9663 12.2666 24.2609C12.2666 24.5554 12.5054 24.7942 12.7999 24.7942H18.6666C18.9611 24.7942 19.1999 24.5554 19.1999 24.2609C19.1999 23.9663 18.9611 23.7275 18.6666 23.7275Z" fill="#888E8C"/>
</g>
<defs>
<clipPath id="clip0">
<rect width="32" height="32" fill="white" transform="translate(0 0.260742)"/>
</clipPath>
</defs>
</svg>
