<svg width="101" height="40" viewBox="0 0 101 40" fill="none" xmlns="http://www.w3.org/2000/svg">
<path d="M96.1249 17.5572C93.2686 9.98552 85.795 5.62965 81.8174 4.17291C81.5524 4.07585 81.2802 4.27644 81.2802 4.55867C81.2802 4.71334 81.3684 4.85609 81.505 4.92867C89.2262 9.03107 92.6447 14.7579 93.7364 18.1124C93.9684 18.8254 94.7458 19.2681 95.4469 19.0021C96.0305 18.7807 96.3453 18.1413 96.1249 17.5572Z" fill="black"/>
<path d="M100.152 9.91129C98.0978 4.47139 92.7239 1.34197 89.864 0.295497C89.6736 0.225822 89.4781 0.369951 89.4781 0.572711C89.4781 0.683884 89.5415 0.786482 89.6397 0.838612C95.1914 3.78604 97.6496 7.90051 98.4346 10.3107C98.6016 10.8232 99.1603 11.1415 99.6643 10.9504C100.084 10.7912 100.311 10.3313 100.152 9.91129Z" fill="black"/>
<path d="M85.1003 17.5933L100.011 0.464964C100.169 0.283335 100.04 0 99.7992 0C99.7274 0 99.6583 0.027538 99.6062 0.0769449L81.1959 17.5231C80.6013 18.0866 81.0001 19.0872 81.8193 19.0872C83.0775 19.0872 84.2741 18.5423 85.1003 17.5933Z" fill="black"/>
<path d="M17.1672 17.6905V8.79662H8.60183V10.8893H14.3323C14.3323 11.7531 13.7727 12.9211 12.8845 13.9431C12.4343 14.4663 11.8382 14.9043 11.0717 15.2571C10.3052 15.61 9.47783 15.7925 8.5775 15.7925C6.66733 15.7925 5.15867 15.1476 4.07583 13.8701C2.993 12.5926 2.4455 10.9623 2.4455 8.96696C2.4455 6.97162 3.00517 5.32912 4.11233 4.05162C5.2195 2.77412 6.76467 2.14146 8.7235 2.14146C10.4268 2.14146 11.8625 2.70112 12.6777 3.40679C13.0792 3.75962 13.4442 4.17329 13.7483 4.63562C14.3688 5.56029 14.5513 6.13212 14.6852 6.72829H17.1428C17.009 5.36562 16.3155 3.86912 15.038 2.44562C14.3932 1.72779 13.5293 1.14379 12.4222 0.681455C11.315 0.231289 10.0862 0.00012207 8.7235 0.00012207C6.059 0.00012207 3.942 0.827456 2.3725 2.49429C0.790833 4.16112 0 6.31462 0 8.96696C0 11.6315 0.778667 13.785 2.32383 15.4396C3.869 17.1065 5.9495 17.9338 8.5775 17.9338C9.5265 17.9338 10.3903 17.8 11.169 17.5201C11.9477 17.2525 12.556 16.9483 12.9818 16.6198C13.4077 16.2913 13.7727 15.902 14.1012 15.4518C14.4175 15.0138 14.6122 14.7096 14.6973 14.5271C14.7703 14.3568 14.819 14.223 14.8555 14.1256H14.9528V17.6905H17.1672Z" fill="black"/>
<path d="M27.1657 5.23179C25.9004 5.23179 24.7324 5.69412 24.1119 6.13212C23.8077 6.36329 23.5279 6.63096 23.2724 6.93512C22.7736 7.55562 22.7371 7.71379 22.6762 7.84762H22.5546V5.47512H20.4132V17.6905H22.5546V11.887C22.5546 10.6338 22.9317 9.58746 23.6861 8.74796C24.4404 7.90846 25.4746 7.49479 26.7886 7.49479C27.5551 7.50696 28.1634 7.59212 28.6257 7.75029V5.40212L28.4554 5.37779C28.2242 5.31696 27.7011 5.23179 27.1657 5.23179Z" fill="black"/>
<path d="M30.6186 5.47512V12.2885C30.6186 14.1621 31.1418 15.5735 32.1881 16.5103C33.2223 17.4593 34.5363 17.9338 36.118 17.9338C37.3833 17.9338 38.5513 17.5931 39.1718 17.2038C39.476 17.0213 39.7558 16.8023 40.0113 16.559C40.498 16.0723 40.5466 15.9141 40.6075 15.8168H40.7291V17.6905H42.8705V5.47512H40.7291V11.7896C40.7291 13.0306 40.3885 14.0283 39.695 14.7948C39.0015 15.5613 38.016 15.9506 36.7385 15.9506C35.534 15.9506 34.5606 15.61 33.8428 14.9408C33.125 14.2716 32.76 13.2131 32.76 11.7896V5.47512H30.6186Z" fill="black"/>
<path d="M48.124 22.6788V15.8655H48.2214L48.3917 16.0966C48.5985 16.3521 49.1217 16.778 49.8152 17.2038C50.5087 17.6296 51.6767 17.9338 52.9055 17.9338C54.7427 17.9338 56.2879 17.3498 57.5289 16.1818C58.7577 15.0138 59.3782 13.4808 59.3782 11.5828C59.3782 9.69695 58.7577 8.16396 57.5289 6.98379C56.2879 5.81579 54.7427 5.23179 52.9055 5.23179C51.6767 5.23179 50.4722 5.58462 49.8274 5.94962C49.4989 6.13212 49.1947 6.33896 48.9149 6.57012C48.343 7.03246 48.2822 7.20279 48.2214 7.30012H48.124V5.47512H45.9827V22.6788H48.124ZM55.9594 14.7096C55.132 15.537 54.0249 15.9506 52.65 15.9506C51.3117 15.9506 50.2289 15.5491 49.3894 14.734C48.5499 13.931 48.124 12.8846 48.124 11.5828C48.124 10.3296 48.5377 9.28329 49.3529 8.45596C50.168 7.64079 51.2752 7.22712 52.65 7.22712C54.0249 7.22712 55.132 7.64079 55.9594 8.45596C56.7745 9.28329 57.1882 10.3296 57.1882 11.5828C57.1882 12.8481 56.7745 13.8945 55.9594 14.7096Z" fill="black"/>
<path d="M63.4029 16.194C64.6561 17.3498 66.2621 17.9338 68.2088 17.9338C70.1433 17.9338 71.7493 17.3498 73.0146 16.194C74.2678 15.0381 74.9004 13.493 74.9004 11.5828C74.9004 9.67262 74.2678 8.13962 73.0146 6.97162C71.7493 5.81579 70.1433 5.23179 68.2088 5.23179C66.2621 5.23179 64.6561 5.81579 63.4029 6.97162C62.1376 8.13962 61.5049 9.67262 61.5049 11.5828C61.5049 13.493 62.1376 15.0381 63.4029 16.194ZM71.4816 14.7218C70.6543 15.537 69.5593 15.9506 68.2088 15.9506C66.8461 15.9506 65.7511 15.537 64.9359 14.7218C64.1086 13.9066 63.6949 12.8603 63.6949 11.5828C63.6949 10.3053 64.1086 9.25896 64.9359 8.44379C65.7511 7.62862 66.8461 7.22712 68.2088 7.22712C69.5593 7.22712 70.6543 7.62862 71.4816 8.44379C72.2968 9.25896 72.7104 10.3053 72.7104 11.5828C72.7104 12.8603 72.2968 13.9066 71.4816 14.7218Z" fill="black"/>
<path d="M15.7802 39.2314V21.7844H13.432V36.6155H13.359L3.99067 21.7844H0.498833V39.2314H2.847V24.4002H2.92L12.2883 39.2314H15.7802Z" fill="black"/>
<path d="M32.1662 33.1237C32.1662 31.2135 31.5336 29.6684 30.2804 28.5125C29.0151 27.3567 27.4091 26.7727 25.4746 26.7727C23.5279 26.7727 21.9219 27.3567 20.6687 28.5125C19.4034 29.6684 18.7707 31.2135 18.7707 33.1237C18.7707 35.0582 19.4034 36.5912 20.6809 37.747C21.9462 38.9029 23.5887 39.4747 25.5962 39.4747C26.5452 39.4747 27.4091 39.353 28.1756 39.0854C28.9421 38.8299 29.5382 38.55 29.9641 38.2215C30.3899 37.893 30.7549 37.528 31.0712 37.1144C31.3876 36.7007 31.5822 36.4087 31.6674 36.2505C31.7404 36.0924 31.7891 35.9707 31.8256 35.8734H29.3071L29.2097 36.0437C29.0516 36.2384 28.6136 36.6034 28.0904 36.9197C27.5551 37.236 26.6182 37.4915 25.5962 37.4915C24.2214 37.4915 23.1142 37.1022 22.2991 36.3357C21.4717 35.5692 21.0581 34.8392 21.0581 34.1457H32.0932L32.1662 33.1237ZM28.7109 29.9239C29.5017 30.6904 29.9032 31.4569 29.9032 32.199H21.0337C21.0337 31.4569 21.4352 30.6904 22.2382 29.9239C23.0291 29.1574 24.1119 28.768 25.4746 28.768C26.8251 28.768 27.9079 29.1574 28.7109 29.9239Z" fill="black"/>
<path d="M42.2378 27.016L38.7946 31.2865L35.388 27.016H32.8938L37.5536 32.8317L32.4193 39.2314H34.9135L38.7946 34.3769L42.7123 39.2314H45.2065L40.0478 32.8317L44.732 27.016H42.2378Z" fill="black"/>
<path d="M54.3899 27.016L50.9467 31.2865L47.54 27.016H45.0459L49.7057 32.8317L44.5714 39.2314H47.0655L50.9467 34.3769L54.8644 39.2314H57.3585L52.1999 32.8317L56.884 27.016H54.3899Z" fill="black"/>
<path d="M70.9828 33.1237C70.9828 31.2135 70.3501 29.6684 69.0969 28.5125C67.8316 27.3567 66.2256 26.7727 64.2911 26.7727C62.3444 26.7727 60.7384 27.3567 59.4853 28.5125C58.2199 29.6684 57.5873 31.2135 57.5873 33.1237C57.5873 35.0582 58.2199 36.5912 59.4974 37.747C60.7628 38.9029 62.4053 39.4747 64.4128 39.4747C65.3618 39.4747 66.2256 39.353 66.9921 39.0854C67.7586 38.8299 68.3548 38.55 68.7806 38.2215C69.2064 37.893 69.5714 37.528 69.8878 37.1144C70.2041 36.7007 70.3988 36.4087 70.4839 36.2505C70.5569 36.0924 70.6056 35.9707 70.6421 35.8734H68.1236L68.0263 36.0437C67.8681 36.2384 67.4301 36.6034 66.9069 36.9197C66.3716 37.236 65.4348 37.4915 64.4128 37.4915C63.0379 37.4915 61.9308 37.1022 61.1156 36.3357C60.2883 35.5692 59.8746 34.8392 59.8746 34.1457H70.9098L70.9828 33.1237ZM67.5274 29.9239C68.3183 30.6904 68.7198 31.4569 68.7198 32.199H59.8503C59.8503 31.4569 60.2518 30.6904 61.0548 29.9239C61.8456 29.1574 62.9284 28.768 64.2911 28.768C65.6416 28.768 66.7244 29.1574 67.5274 29.9239Z" fill="black"/>
<path d="M86.5172 33.1237C86.5172 31.2135 85.8845 29.6684 84.6313 28.5125C83.366 27.3567 81.76 26.7727 79.8255 26.7727C77.8788 26.7727 76.2728 27.3567 75.0197 28.5125C73.7543 29.6684 73.1217 31.2135 73.1217 33.1237C73.1217 35.0582 73.7543 36.5912 75.0318 37.747C76.2972 38.9029 77.9397 39.4747 79.9472 39.4747C80.8962 39.4747 81.76 39.353 82.5265 39.0854C83.293 38.8299 83.8892 38.55 84.315 38.2215C84.7408 37.893 85.1058 37.528 85.4222 37.1144C85.7385 36.7007 85.9332 36.4087 86.0183 36.2505C86.0913 36.0924 86.14 35.9707 86.1765 35.8734H83.658L83.5607 36.0437C83.4025 36.2384 82.9645 36.6034 82.4413 36.9197C81.906 37.236 80.9692 37.4915 79.9472 37.4915C78.5723 37.4915 77.4652 37.1022 76.65 36.3357C75.8227 35.5692 75.409 34.8392 75.409 34.1457H86.4442L86.5172 33.1237ZM83.0618 29.9239C83.8527 30.6904 84.2542 31.4569 84.2542 32.199H75.3847C75.3847 31.4569 75.7862 30.6904 76.5892 29.9239C77.38 29.1574 78.4628 28.768 79.8255 28.768C81.176 28.768 82.2588 29.1574 83.0618 29.9239Z" fill="black"/>
<path d="M98.3651 35.6179C98.3651 36.871 97.1119 37.4915 94.6056 37.4794C92.0992 37.4794 90.8461 36.7372 90.8461 35.2407V34.8514H88.6561V35.2407C88.6561 36.2384 88.9481 37.0657 89.5199 37.7227C90.6636 39.0367 92.4156 39.4747 94.6056 39.4747C95.7127 39.4747 96.6982 39.3652 97.5621 39.1219C98.4137 38.8907 99.1316 38.477 99.7034 37.8809C100.275 37.2847 100.567 36.5304 100.567 35.6179C100.567 34.7784 100.336 34.097 99.8737 33.5739C99.3992 33.0629 98.8152 32.7222 98.1217 32.5519C97.4282 32.3937 96.6617 32.2599 95.8466 32.1504C95.0192 32.053 94.2527 31.98 93.5592 31.9435C92.8657 31.907 92.2817 31.761 91.8194 31.5177C91.3449 31.2744 91.1137 30.9215 91.1137 30.4592C91.1137 29.3277 92.2574 28.768 94.5569 28.768C96.9902 28.768 98.0001 29.5102 98.0001 31.0067H100.19C100.19 29.5467 99.6791 28.476 98.6449 27.7947C97.6107 27.1134 96.2481 26.7727 94.5569 26.7727C92.8901 26.7727 91.5396 27.0769 90.4932 27.6852C89.4469 28.3057 88.9237 29.2304 88.9237 30.4592C88.9237 31.2987 89.1549 31.9679 89.6294 32.4789C90.0917 32.9899 90.6757 33.3184 91.3692 33.4644C92.0627 33.6225 92.8292 33.7442 93.6566 33.8415C94.4717 33.951 95.2382 34.024 95.9317 34.0605C96.6252 34.097 97.2092 34.2552 97.6716 34.5107C98.1339 34.7662 98.3651 35.1434 98.3651 35.6179Z" fill="black"/>
</svg>
