<svg width="215" height="42" viewBox="0 0 215 42" fill="none" xmlns="http://www.w3.org/2000/svg">
<path d="M127.103 5.65931C127.103 4.13059 126.608 2.94057 125.62 2.08009C124.631 1.21961 123.349 0.789367 121.775 0.789367C120.191 0.789367 118.901 1.21961 117.912 2.08009C116.923 2.94057 116.429 4.13059 116.429 5.65931C116.429 7.18804 116.923 8.37806 117.921 9.23854C118.919 10.099 120.21 10.5293 121.812 10.5293C122.645 10.5293 123.395 10.4194 124.063 10.1997C124.723 9.98917 125.217 9.74201 125.556 9.47655C125.885 9.21108 126.16 8.89984 126.389 8.54284C126.617 8.19498 126.746 7.95698 126.791 7.81967C126.837 7.69151 126.865 7.58166 126.874 7.49928H123.917L123.743 7.71897C123.633 7.88375 123.404 8.03936 123.056 8.19498C122.699 8.3506 122.288 8.43299 121.812 8.43299C120.997 8.43299 120.374 8.2316 119.935 7.81967C119.486 7.41689 119.267 6.93173 119.267 6.37333H127.048L127.103 5.65931ZM121.775 2.88564C122.562 2.88564 123.166 3.07788 123.597 3.46235C124.018 3.85597 124.228 4.27706 124.228 4.7256H119.303C119.303 4.28621 119.523 3.86512 119.962 3.4715C120.393 3.07788 120.997 2.88564 121.775 2.88564Z" fill="black"/>
<path d="M144.605 10.3462V4.89038C144.614 2.15332 143.378 0.789367 140.898 0.789367C140.046 0.789367 139.332 1.07314 138.939 1.39353C138.746 1.54915 138.582 1.73223 138.444 1.92447C138.17 2.32724 138.133 2.42794 138.106 2.52863H137.968L137.895 2.36386C137.794 2.10755 137.492 1.73223 137.08 1.39353C136.669 1.05483 135.9 0.789367 134.993 0.789367C134.142 0.789367 133.373 1.07314 133.007 1.39353C132.815 1.54915 132.65 1.73223 132.513 1.92447C132.22 2.32724 132.211 2.42794 132.183 2.52863H132.046V0.972448H129.345V10.3462H132.046V5.49454C132.046 3.95666 132.65 3.18772 133.849 3.18772C135.03 3.18772 135.625 3.95666 135.625 5.49454V10.3462H138.325V5.41216C138.325 3.9292 138.93 3.18772 140.129 3.18772C141.319 3.18772 141.914 3.95666 141.914 5.49454V10.3462H144.605Z" fill="black"/>
<path d="M156.533 2.09839C155.663 1.22876 154.583 0.789367 153.292 0.789367C152.386 0.789367 151.535 1.0823 151.077 1.38438C150.848 1.54 150.638 1.71392 150.445 1.90616C150.07 2.30894 150.024 2.40963 149.978 2.51033H149.841V0.972448H147.141V14.0993H149.841V9.20193H149.96L150.253 9.52232C150.464 9.75117 150.848 9.97087 151.407 10.1906C151.965 10.4194 152.587 10.5293 153.292 10.5293C154.583 10.5293 155.663 10.0899 156.533 9.22023C157.402 8.3506 157.833 7.16058 157.833 5.65931C157.833 4.15805 157.402 2.96803 156.533 2.09839ZM154.354 7.4352C153.887 7.90205 153.246 8.1309 152.45 8.1309C151.663 8.1309 151.031 7.90205 150.555 7.44435C150.079 6.9958 149.841 6.40079 149.841 5.65931C149.841 4.93615 150.079 4.34113 150.546 3.87428C151.013 3.41658 151.654 3.18772 152.45 3.18772C153.246 3.18772 153.887 3.41658 154.354 3.87428C154.821 4.34113 155.059 4.93615 155.059 5.65931C155.059 6.38248 154.821 6.97749 154.354 7.4352Z" fill="black"/>
<path d="M166.199 0.789367C165.247 0.789367 164.396 1.11891 163.948 1.44846C163.719 1.62238 163.526 1.81462 163.353 2.03432C163.005 2.47371 162.986 2.59271 162.941 2.69341H162.785V0.972448H160.085V10.3462H162.785V6.1994C162.785 5.43962 163.023 4.80799 163.49 4.31367C163.957 3.82851 164.634 3.58135 165.504 3.58135C166.19 3.57219 166.73 3.66373 167.133 3.85597V0.880908L166.199 0.789367Z" fill="black"/>
<path d="M179.024 5.65931C179.024 4.13059 178.53 2.94057 177.541 2.08009C176.553 1.21961 175.271 0.789367 173.697 0.789367C172.113 0.789367 170.822 1.21961 169.834 2.08009C168.845 2.94057 168.351 4.13059 168.351 5.65931C168.351 7.18804 168.845 8.37806 169.843 9.23854C170.841 10.099 172.131 10.5293 173.733 10.5293C174.566 10.5293 175.317 10.4194 175.985 10.1997C176.644 9.98917 177.139 9.74201 177.477 9.47655C177.807 9.21108 178.081 8.89984 178.31 8.54284C178.539 8.19498 178.667 7.95698 178.713 7.81967C178.759 7.69151 178.786 7.58166 178.795 7.49928H175.839L175.665 7.71897C175.555 7.88375 175.326 8.03936 174.978 8.19498C174.621 8.3506 174.209 8.43299 173.733 8.43299C172.919 8.43299 172.296 8.2316 171.857 7.81967C171.408 7.41689 171.188 6.93173 171.188 6.37333H178.969L179.024 5.65931ZM173.697 2.88564C174.484 2.88564 175.088 3.07788 175.518 3.46235C175.939 3.85597 176.15 4.27706 176.15 4.7256H171.225C171.225 4.28621 171.445 3.86512 171.884 3.4715C172.314 3.07788 172.919 2.88564 173.697 2.88564Z" fill="black"/>
<path d="M190.064 3.87428C190.064 1.81462 188.535 0.780213 185.469 0.789367C184.05 0.789367 182.933 1.02737 182.118 1.51254C181.304 1.9977 180.892 2.71171 180.892 3.63627C180.892 4.2679 181.066 4.78968 181.404 5.20161C181.743 5.61354 182.164 5.90647 182.668 6.06209C183.171 6.21771 183.72 6.34587 184.306 6.44656C184.892 6.54726 185.441 6.61133 185.945 6.64795C186.448 6.69372 186.878 6.78526 187.217 6.93173C187.556 7.08735 187.721 7.29789 187.721 7.57251C187.711 8.20414 186.997 8.52453 185.579 8.52453C184.114 8.52453 183.482 8.19498 183.482 7.34366V7.05073H180.709V7.34366C180.709 9.46739 182.329 10.5293 185.579 10.5293C188.856 10.5384 190.494 9.54062 190.494 7.53589C190.494 6.77611 190.256 6.16279 189.789 5.71424C189.323 5.26569 188.755 4.96361 188.087 4.8263C187.419 4.68899 186.75 4.59745 186.082 4.53337C185.414 4.46929 184.846 4.37775 184.379 4.24959C183.913 4.13059 183.675 3.9292 183.675 3.65458C183.675 3.07788 184.251 2.7941 185.414 2.7941C186.265 2.7941 186.824 2.9131 187.043 3.16942C187.254 3.43488 187.29 3.57219 187.29 3.87428H190.064Z" fill="black"/>
<path d="M192.169 7.70066C192.169 8.62522 192.536 9.33008 193.277 9.80609C194.019 10.2913 194.943 10.5293 196.051 10.5293C197.103 10.5293 197.991 10.3279 198.495 10.0899C199.291 9.71455 199.557 9.266 199.557 9.22023H199.694L199.749 9.34839C199.822 9.53147 200.051 9.81525 200.362 10.0716C200.674 10.337 201.287 10.5293 201.955 10.5293C202.504 10.5293 202.889 10.4652 203.118 10.3462V8.09429L202.724 8.16752C202.285 8.16752 202.111 7.92952 202.111 7.16058V4.23128C202.111 3.08703 201.699 2.22655 200.875 1.64985C200.051 1.07314 198.898 0.789367 197.424 0.789367C195.959 0.789367 194.797 1.05483 193.945 1.58577C193.094 2.1167 192.655 2.92226 192.645 3.99328H195.419C195.419 3.5905 195.63 3.28842 196.051 3.09618C196.463 2.90395 196.92 2.81241 197.424 2.81241C198.138 2.81241 198.651 2.94972 198.953 3.21519C199.255 3.48981 199.41 3.82851 199.41 4.23128V5.60439L199.108 5.39385C198.916 5.27485 198.568 5.14669 198.065 5.00938C197.561 4.88122 196.994 4.81714 196.371 4.81714C195.154 4.81714 194.156 5.05515 193.359 5.53116C192.563 6.01632 192.169 6.73949 192.169 7.70066ZM197.158 8.48791C195.685 8.48791 194.943 8.18583 194.943 7.57251C194.943 6.95919 195.685 6.6571 197.158 6.6571C197.662 6.6571 198.101 6.71203 198.495 6.81272C198.879 6.91342 199.117 6.9958 199.218 7.05988C199.31 7.12396 199.374 7.17888 199.41 7.2155V7.7739L199.218 7.94782C199.081 8.06682 198.834 8.18583 198.458 8.30483C198.083 8.42383 197.644 8.48791 197.158 8.48791Z" fill="black"/>
<path d="M213.791 3.87428C213.791 1.81462 212.263 0.780213 209.196 0.789367C207.777 0.789367 206.66 1.02737 205.846 1.51254C205.031 1.9977 204.619 2.71171 204.619 3.63627C204.619 4.2679 204.793 4.78968 205.132 5.20161C205.47 5.61354 205.891 5.90647 206.395 6.06209C206.898 6.21771 207.448 6.34587 208.033 6.44656C208.619 6.54726 209.168 6.61133 209.672 6.64795C210.175 6.69372 210.606 6.78526 210.944 6.93173C211.283 7.08735 211.448 7.29789 211.448 7.57251C211.439 8.20414 210.725 8.52453 209.306 8.52453C207.841 8.52453 207.21 8.19498 207.21 7.34366V7.05073H204.436V7.34366C204.436 9.46739 206.056 10.5293 209.306 10.5293C212.583 10.5384 214.222 9.54062 214.222 7.53589C214.222 6.77611 213.984 6.16279 213.517 5.71424C213.05 5.26569 212.482 4.96361 211.814 4.8263C211.146 4.68899 210.478 4.59745 209.809 4.53337C209.141 4.46929 208.573 4.37775 208.107 4.24959C207.64 4.13059 207.402 3.9292 207.402 3.65458C207.402 3.07788 207.978 2.7941 209.141 2.7941C209.992 2.7941 210.551 2.9131 210.77 3.16942C210.981 3.43488 211.018 3.57219 211.018 3.87428H213.791Z" fill="black"/>
<path d="M44.4365 41.7882V17.8521C44.4365 11.888 42.8752 7.44503 39.7126 4.443C36.55 1.481 32.3866 0 27.2224 0C22.9388 0 19.0556 1.24084 17.014 2.64179C16.0131 3.32225 15.1324 4.12279 14.3718 4.96335C12.8506 6.72455 12.6904 7.16484 12.4903 7.60514H11.8097V0.800541H0V41.7882H11.8097V21.1343C11.8097 17.9721 12.7305 15.3704 14.5319 13.4091C16.3334 11.4477 18.8955 10.4871 22.2182 10.4871C28.6635 10.4871 32.6268 14.1295 32.6268 21.1343V41.7882H44.4365Z" fill="black"/>
<path d="M50.2213 0.800541V41.7882H62.031V0.800541H50.2213Z" fill="black"/>
<path d="M98.2211 41.7882H111.912L96.7399 20.4939L110.111 0.800541H96.6598L88.6533 13.8494H88.373L80.3664 0.800541H66.9154L80.2864 20.4939L65.1139 41.7882H78.8052L88.373 27.4586H88.6533L98.2211 41.7882Z" fill="black"/>
</svg>
