<svg width="112" height="42" viewBox="0 0 112 42" fill="none" xmlns="http://www.w3.org/2000/svg">
<path d="M44.4365 41.7882V17.8521C44.4365 11.888 42.8752 7.44503 39.7126 4.443C36.55 1.481 32.3866 0 27.2224 0C22.9388 0 19.0556 1.24084 17.014 2.64179C16.0131 3.32225 15.1324 4.12279 14.3718 4.96335C12.8506 6.72455 12.6904 7.16484 12.4903 7.60514H11.8097V0.800541H0V41.7882H11.8097V21.1343C11.8097 17.9721 12.7305 15.3704 14.5319 13.4091C16.3334 11.4477 18.8955 10.4871 22.2182 10.4871C28.6635 10.4871 32.6268 14.1295 32.6268 21.1343V41.7882H44.4365Z" fill="black"/>
<path d="M50.2213 0.800541V41.7882H62.031V0.800541H50.2213Z" fill="black"/>
<path d="M98.2211 41.7882H111.912L96.7399 20.4939L110.111 0.800541H96.6598L88.6533 13.8494H88.373L80.3664 0.800541H66.9154L80.2864 20.4939L65.1139 41.7882H78.8052L88.373 27.4586H88.6533L98.2211 41.7882Z" fill="black"/>
</svg>
