<svg width="215" height="42" viewBox="0 0 215 42" fill="none" xmlns="http://www.w3.org/2000/svg">
<path d="M127.103 5.65935C127.103 4.13062 126.608 2.9406 125.62 2.08012C124.631 1.21964 123.349 0.789397 121.775 0.789397C120.191 0.789397 118.901 1.21964 117.912 2.08012C116.923 2.9406 116.429 4.13062 116.429 5.65935C116.429 7.18807 116.923 8.37809 117.921 9.23857C118.919 10.0991 120.21 10.5293 121.812 10.5293C122.645 10.5293 123.395 10.4194 124.063 10.1997C124.723 9.9892 125.217 9.74205 125.556 9.47658C125.885 9.21111 126.16 8.89987 126.389 8.54287C126.617 8.19501 126.746 7.95701 126.791 7.8197C126.837 7.69154 126.865 7.58169 126.874 7.49931H123.917L123.743 7.719C123.633 7.88378 123.404 8.03939 123.056 8.19501C122.699 8.35063 122.288 8.43302 121.812 8.43302C120.997 8.43302 120.374 8.23163 119.935 7.8197C119.486 7.41692 119.267 6.93176 119.267 6.37336H127.048L127.103 5.65935ZM121.775 2.88567C122.562 2.88567 123.166 3.07791 123.597 3.46238C124.018 3.856 124.228 4.27709 124.228 4.72563H119.303C119.303 4.28624 119.523 3.86515 119.962 3.47153C120.393 3.07791 120.997 2.88567 121.775 2.88567Z" fill="#4DE5B6"/>
<path d="M144.605 10.3462V4.89041C144.614 2.15335 143.378 0.789397 140.898 0.789397C140.046 0.789397 139.332 1.07317 138.939 1.39356C138.746 1.54918 138.582 1.73226 138.444 1.9245C138.17 2.32728 138.133 2.42797 138.106 2.52866H137.968L137.895 2.36389C137.794 2.10758 137.492 1.73226 137.08 1.39356C136.669 1.05486 135.9 0.789397 134.993 0.789397C134.142 0.789397 133.373 1.07317 133.007 1.39356C132.815 1.54918 132.65 1.73226 132.513 1.9245C132.22 2.32728 132.211 2.42797 132.183 2.52866H132.046V0.972478H129.345V10.3462H132.046V5.49457C132.046 3.95669 132.65 3.18775 133.849 3.18775C135.03 3.18775 135.625 3.95669 135.625 5.49457V10.3462H138.325V5.41219C138.325 3.92923 138.93 3.18775 140.129 3.18775C141.319 3.18775 141.914 3.95669 141.914 5.49457V10.3462H144.605Z" fill="#4DE5B6"/>
<path d="M156.533 2.09842C155.663 1.22879 154.583 0.789397 153.292 0.789397C152.386 0.789397 151.535 1.08233 151.077 1.38441C150.848 1.54003 150.638 1.71395 150.445 1.90619C150.07 2.30897 150.024 2.40966 149.978 2.51036H149.841V0.972478H147.141V14.0994H149.841V9.20196H149.96L150.253 9.52235C150.464 9.7512 150.848 9.9709 151.407 10.1906C151.965 10.4194 152.587 10.5293 153.292 10.5293C154.583 10.5293 155.663 10.0899 156.533 9.22026C157.402 8.35063 157.833 7.16061 157.833 5.65935C157.833 4.15808 157.402 2.96806 156.533 2.09842ZM154.354 7.43523C153.887 7.90208 153.246 8.13093 152.45 8.13093C151.663 8.13093 151.031 7.90208 150.555 7.44438C150.079 6.99583 149.841 6.40082 149.841 5.65935C149.841 4.93618 150.079 4.34116 150.546 3.87431C151.013 3.41661 151.654 3.18775 152.45 3.18775C153.246 3.18775 153.887 3.41661 154.354 3.87431C154.821 4.34116 155.059 4.93618 155.059 5.65935C155.059 6.38251 154.821 6.97753 154.354 7.43523Z" fill="#4DE5B6"/>
<path d="M166.199 0.789397C165.247 0.789397 164.396 1.11894 163.948 1.44849C163.719 1.62242 163.526 1.81465 163.353 2.03435C163.005 2.47374 162.986 2.59274 162.941 2.69344H162.785V0.972478H160.085V10.3462H162.785V6.19943C162.785 5.43965 163.023 4.80802 163.49 4.3137C163.957 3.82854 164.634 3.58138 165.504 3.58138C166.19 3.57223 166.73 3.66377 167.133 3.856V0.880938L166.199 0.789397Z" fill="#4DE5B6"/>
<path d="M179.024 5.65935C179.024 4.13062 178.53 2.9406 177.541 2.08012C176.553 1.21964 175.271 0.789397 173.697 0.789397C172.113 0.789397 170.822 1.21964 169.834 2.08012C168.845 2.9406 168.351 4.13062 168.351 5.65935C168.351 7.18807 168.845 8.37809 169.843 9.23857C170.841 10.0991 172.131 10.5293 173.733 10.5293C174.566 10.5293 175.317 10.4194 175.985 10.1997C176.644 9.9892 177.139 9.74205 177.477 9.47658C177.807 9.21111 178.081 8.89987 178.31 8.54287C178.539 8.19501 178.667 7.95701 178.713 7.8197C178.759 7.69154 178.786 7.58169 178.795 7.49931H175.839L175.665 7.719C175.555 7.88378 175.326 8.03939 174.978 8.19501C174.621 8.35063 174.209 8.43302 173.733 8.43302C172.919 8.43302 172.296 8.23163 171.857 7.8197C171.408 7.41692 171.188 6.93176 171.188 6.37336H178.969L179.024 5.65935ZM173.697 2.88567C174.484 2.88567 175.088 3.07791 175.518 3.46238C175.939 3.856 176.15 4.27709 176.15 4.72563H171.225C171.225 4.28624 171.445 3.86515 171.884 3.47153C172.314 3.07791 172.919 2.88567 173.697 2.88567Z" fill="#4DE5B6"/>
<path d="M190.064 3.87431C190.064 1.81465 188.535 0.780243 185.469 0.789397C184.05 0.789397 182.933 1.0274 182.118 1.51257C181.304 1.99773 180.892 2.71175 180.892 3.6363C180.892 4.26793 181.066 4.78971 181.404 5.20164C181.743 5.61357 182.164 5.9065 182.668 6.06212C183.171 6.21774 183.72 6.3459 184.306 6.44659C184.892 6.54729 185.441 6.61136 185.945 6.64798C186.448 6.69375 186.878 6.78529 187.217 6.93176C187.556 7.08738 187.721 7.29792 187.721 7.57254C187.711 8.20417 186.997 8.52456 185.579 8.52456C184.114 8.52456 183.482 8.19501 183.482 7.34369V7.05076H180.709V7.34369C180.709 9.46742 182.329 10.5293 185.579 10.5293C188.856 10.5384 190.494 9.54066 190.494 7.53592C190.494 6.77614 190.256 6.16282 189.789 5.71427C189.323 5.26572 188.755 4.96364 188.087 4.82633C187.419 4.68902 186.75 4.59748 186.082 4.5334C185.414 4.46932 184.846 4.37778 184.379 4.24962C183.913 4.13062 183.675 3.92923 183.675 3.65461C183.675 3.07791 184.251 2.79413 185.414 2.79413C186.265 2.79413 186.824 2.91313 187.043 3.16945C187.254 3.43491 187.29 3.57223 187.29 3.87431H190.064Z" fill="#4DE5B6"/>
<path d="M192.169 7.7007C192.169 8.62525 192.536 9.33011 193.277 9.80612C194.019 10.2913 194.943 10.5293 196.051 10.5293C197.103 10.5293 197.991 10.3279 198.495 10.0899C199.291 9.71458 199.557 9.26603 199.557 9.22026H199.694L199.749 9.34842C199.822 9.5315 200.051 9.81528 200.362 10.0716C200.674 10.3371 201.287 10.5293 201.955 10.5293C202.504 10.5293 202.889 10.4652 203.118 10.3462V8.09432L202.724 8.16755C202.285 8.16755 202.111 7.92955 202.111 7.16061V4.23132C202.111 3.08706 201.699 2.22658 200.875 1.64988C200.051 1.07317 198.898 0.789397 197.424 0.789397C195.959 0.789397 194.797 1.05486 193.945 1.5858C193.094 2.11673 192.655 2.92229 192.645 3.99331H195.419C195.419 3.59053 195.63 3.28845 196.051 3.09621C196.463 2.90398 196.92 2.81244 197.424 2.81244C198.138 2.81244 198.651 2.94975 198.953 3.21522C199.255 3.48984 199.41 3.82854 199.41 4.23132V5.60442L199.108 5.39388C198.916 5.27488 198.568 5.14672 198.065 5.00941C197.561 4.88125 196.994 4.81717 196.371 4.81717C195.154 4.81717 194.156 5.05518 193.359 5.53119C192.563 6.01635 192.169 6.73952 192.169 7.7007ZM197.158 8.48794C195.685 8.48794 194.943 8.18586 194.943 7.57254C194.943 6.95922 195.685 6.65713 197.158 6.65713C197.662 6.65713 198.101 6.71206 198.495 6.81275C198.879 6.91345 199.117 6.99583 199.218 7.05991C199.31 7.12399 199.374 7.17892 199.41 7.21553V7.77393L199.218 7.94785C199.081 8.06686 198.834 8.18586 198.458 8.30486C198.083 8.42386 197.644 8.48794 197.158 8.48794Z" fill="#4DE5B6"/>
<path d="M213.791 3.87431C213.791 1.81465 212.263 0.780243 209.196 0.789397C207.777 0.789397 206.66 1.0274 205.846 1.51257C205.031 1.99773 204.619 2.71175 204.619 3.6363C204.619 4.26793 204.793 4.78971 205.132 5.20164C205.47 5.61357 205.891 5.9065 206.395 6.06212C206.898 6.21774 207.448 6.3459 208.033 6.44659C208.619 6.54729 209.168 6.61136 209.672 6.64798C210.175 6.69375 210.606 6.78529 210.944 6.93176C211.283 7.08738 211.448 7.29792 211.448 7.57254C211.439 8.20417 210.725 8.52456 209.306 8.52456C207.841 8.52456 207.21 8.19501 207.21 7.34369V7.05076H204.436V7.34369C204.436 9.46742 206.056 10.5293 209.306 10.5293C212.583 10.5384 214.222 9.54066 214.222 7.53592C214.222 6.77614 213.984 6.16282 213.517 5.71427C213.05 5.26572 212.482 4.96364 211.814 4.82633C211.146 4.68902 210.478 4.59748 209.809 4.5334C209.141 4.46932 208.573 4.37778 208.107 4.24962C207.64 4.13062 207.402 3.92923 207.402 3.65461C207.402 3.07791 207.978 2.79413 209.141 2.79413C209.992 2.79413 210.551 2.91313 210.77 3.16945C210.981 3.43491 211.018 3.57223 211.018 3.87431H213.791Z" fill="#4DE5B6"/>
<path d="M44.4365 41.7882V17.8521C44.4365 11.888 42.8752 7.44503 39.7126 4.443C36.55 1.481 32.3866 0 27.2224 0C22.9388 0 19.0556 1.24084 17.014 2.64179C16.0131 3.32225 15.1324 4.12279 14.3718 4.96335C12.8506 6.72455 12.6904 7.16484 12.4903 7.60514H11.8097V0.800541H0V41.7882H11.8097V21.1343C11.8097 17.9721 12.7305 15.3704 14.5319 13.4091C16.3334 11.4477 18.8955 10.4871 22.2182 10.4871C28.6635 10.4871 32.6268 14.1295 32.6268 21.1343V41.7882H44.4365Z" fill="black"/>
<path d="M50.2213 0.800541V41.7882H62.031V0.800541H50.2213Z" fill="black"/>
<path d="M98.2211 41.7882H111.912L96.7399 20.4939L110.111 0.800541H96.6598L88.6533 13.8494H88.373L80.3664 0.800541H66.9154L80.2864 20.4939L65.1139 41.7882H78.8052L88.373 27.4586H88.6533L98.2211 41.7882Z" fill="black"/>
</svg>
